<?xml version="1.0" encoding="UTF-8"?> <svg xmlns="http://www.w3.org/2000/svg" xmlns:xlink="http://www.w3.org/1999/xlink" width="48px" height="48px" viewBox="0 0 48 48"> <!-- Generator: Sketch 52.6 (67491) - http://www.bohemiancoding.com/sketch --> <title>tea copy</title> <desc>Created with Sketch.</desc> <g id="tea-copy" stroke="none" stroke-width="1" fill="none" fill-rule="evenodd"> <g id="work_seat" opacity="0.798828125" stroke="#C6CFD4"> <rect id="Rectangle" x="0.5" y="0.5" width="47" height="47" rx="3"></rect> </g> <g id="noun_mug_928399" transform="translate(12.000000, 9.000000)" fill="#C70000"> <path d="M4.21692684,7.85842216 C4.21692684,7.85842216 4.21692684,8.47179333 4.21692684,9.50685719 C3.56521997,9.3535144 2.03179202,9.08516451 0.996728162,9.81354278 C0.345021287,10.2735712 0,11.0402851 0,12.1136847 C0,16.0239259 2.83684169,19.6274816 5.48200489,21.735945 C6.28705456,25.301165 7.47546122,27.9079925 9.00888916,29.4414204 C9.08556056,29.5180918 9.16223195,29.5564275 9.27723905,29.5564275 L17.0210502,29.5564275 C17.1360573,29.5564275 17.2127286,29.5180918 17.2894,29.4414204 C19.4745349,27.2562856 20.9312914,22.9626874 21.6596697,16.6756328 C22.1963695,12.0370133 22.0813624,7.93509355 22.0813624,7.89675785 C22.0813624,7.70507936 21.8896839,7.51340087 21.6980054,7.51340087 L4.60028383,7.51340087 C4.40860533,7.47506517 4.25526254,7.66674366 4.21692684,7.85842216 Z M0.80504967,12.1136847 C0.80504967,11.3469707 1.03506386,10.7719352 1.45675654,10.4652497 C2.33847761,9.81354278 3.87190555,10.1968998 4.21692684,10.3119069 C4.25526254,11.9220062 4.37026963,14.2221481 4.63861952,16.6372971 C4.79196232,18.0173823 4.98364081,19.320796 5.213655,20.5092027 C2.49182041,18.055718 0.80504967,14.9121907 0.80504967,12.1136847 Z M4.98364081,8.24177914 L21.3529841,8.24177914 C21.3529841,10.6569282 21.2763127,24.1127583 16.8677074,28.7513779 L9.46891754,28.7513779 C5.09864791,24.151094 4.98364081,10.6952638 4.98364081,8.24177914 Z" id="Shape" fill-rule="nonzero"></path> <path d="M14.1242105,4.90696941 C13.8941963,4.90696941 13.7408535,5.06031221 13.7408535,5.2903264 C13.7408535,5.52034059 13.8941963,5.67368339 14.1242105,5.67368339 C15.0059316,5.67368339 15.7343099,4.94530511 15.7343099,4.06358405 C15.7343099,3.18186298 15.0059316,2.45348471 14.1242105,2.45348471 C13.6641821,2.45348471 13.2808252,2.07012772 13.2808252,1.61009934 C13.2808252,1.15007096 13.6641821,0.766713971 14.1242105,0.766713971 C14.3542247,0.766713971 14.5075675,0.613371177 14.5075675,0.383356986 C14.5075675,0.153342794 14.3542247,0 14.1242105,0 C13.2424895,0 12.5141112,0.728378272 12.5141112,1.61009934 C12.5141112,2.49182041 13.2424895,3.22019868 14.1242105,3.22019868 C14.5842389,3.22019868 14.9675959,3.60355566 14.9675959,4.06358405 C14.9675959,4.52361243 14.5842389,4.90696941 14.1242105,4.90696941 Z" id="Path"></path> <path d="M10.9956827,4.90696941 C10.7656685,4.90696941 10.6123257,5.06031221 10.6123257,5.2903264 C10.6123257,5.52034059 10.7656685,5.67368339 10.9956827,5.67368339 C11.8774038,5.67368339 12.6057821,4.94530511 12.6057821,4.06358405 C12.6057821,3.18186298 11.8774038,2.45348471 10.9956827,2.45348471 C10.5356543,2.45348471 10.1522974,2.07012772 10.1522974,1.61009934 C10.1522974,1.15007096 10.5356543,0.766713971 10.9956827,0.766713971 C11.2256969,0.766713971 11.3790397,0.613371177 11.3790397,0.383356986 C11.3790397,0.153342794 11.2256969,0 10.9956827,0 C10.1139617,0 9.38558339,0.728378272 9.38558339,1.61009934 C9.38558339,2.49182041 10.1139617,3.22019868 10.9956827,3.22019868 C11.4557111,3.22019868 11.8390681,3.60355566 11.8390681,4.06358405 C11.8390681,4.52361243 11.4557111,4.90696941 10.9956827,4.90696941 Z" id="Path"></path> </g> </g> </svg> 