<?xml version="1.0" encoding="UTF-8"?> <svg xmlns="http://www.w3.org/2000/svg" xmlns:xlink="http://www.w3.org/1999/xlink" width="48px" height="48px" viewBox="0 0 48 48"> <!-- Generator: Sketch 52.6 (67491) - http://www.bohemiancoding.com/sketch --> <title>help copy</title> <desc>Created with Sketch.</desc> <g id="help-copy" stroke="none" stroke-width="1" fill="none" fill-rule="evenodd"> <g id="rent_hub" opacity="0.798828125" stroke="#C6CFD4"> <rect id="Rectangle" x="0.5" y="0.5" width="47" height="47" rx="3"></rect> </g> <g id="noun_Vacation_878485" transform="translate(9.000000, 9.000000)" fill="#C70000" fill-rule="nonzero"> <path d="M15.5,31 C24.0680556,31 31,24.025 31,15.5 C31,6.975 24.025,0 15.5,0 C6.975,0 0,6.975 0,15.5 C0,24.025 6.975,31 15.5,31 Z M2.28194444,9.25694444 L7.06111111,11.9263889 C6.5875,13.0458333 6.32916667,14.2513889 6.32916667,15.5 C6.32916667,16.7055556 6.5875,17.9111111 7.01805556,18.9875 L2.23888889,21.6569444 C1.37777778,19.8055556 0.904166667,17.6958333 0.904166667,15.5430556 C0.861111111,13.2611111 1.37777778,11.1513889 2.28194444,9.25694444 Z M8.61111111,2.58333333 L11.2805556,7.31944444 C9.64444444,8.18055556 8.30972222,9.51527778 7.44861111,11.1083333 L2.7125,8.43888889 C4.00416667,5.98472222 6.07083333,3.91805556 8.61111111,2.58333333 Z M15.5,7.14722222 C20.1069444,7.14722222 23.8527778,10.8930556 23.8527778,15.5 C23.8527778,20.1069444 20.1069444,23.8527778 15.5,23.8527778 C10.8930556,23.8527778 7.14722222,20.1069444 7.14722222,15.5 C7.14722222,10.8930556 10.8930556,7.14722222 15.5,7.14722222 Z M21.6569444,2.19583333 L18.9875,6.975 C17.9111111,6.54444444 16.7486111,6.28611111 15.5,6.28611111 C14.2513889,6.28611111 13.0888889,6.54444444 12.0125,6.975 L9.34305556,2.19583333 C11.1944444,1.33472222 13.3041667,0.818055556 15.5,0.818055556 C17.6958333,0.818055556 19.8055556,1.33472222 21.6569444,2.19583333 Z M28.3736111,8.48194444 L23.6375,11.1513889 C22.7763889,9.51527778 21.3986111,8.18055556 19.8055556,7.3625 L22.475,2.62638889 C24.9722222,3.91805556 27.0388889,5.98472222 28.3736111,8.48194444 Z M28.8472222,21.6569444 L24.0680556,18.9875 C24.4986111,17.9111111 24.7569444,16.7486111 24.7569444,15.5 C24.7569444,14.2513889 24.4986111,13.0458333 24.025,11.9263889 L28.8041667,9.25694444 C29.7083333,11.1513889 30.1819444,13.2611111 30.1819444,15.5 C30.1819444,17.6958333 29.7083333,19.7625 28.8472222,21.6569444 Z M22.5180556,28.3736111 L19.8486111,23.6375 C21.4847222,22.7763889 22.8194444,21.3986111 23.6805556,19.7625 L28.4166667,22.4319444 C27.0819444,24.9291667 25.0152778,26.9958333 22.5180556,28.3736111 Z M9.3,28.7611111 L11.9694444,23.9819444 C13.0458333,24.4555556 14.2513889,24.7138889 15.5430556,24.7138889 C16.8347222,24.7138889 17.9972222,24.4555556 19.1166667,23.9819444 L21.7430556,28.7611111 C19.8486111,29.6652778 17.7388889,30.1388889 15.5430556,30.1388889 C13.3472222,30.1388889 11.1944444,29.6652778 9.3,28.7611111 Z M2.58333333,22.3888889 L7.31944444,19.7194444 C8.18055556,21.3555556 9.51527778,22.7333333 11.1513889,23.5944444 L8.48194444,28.3305556 C6.02777778,26.9958333 3.96111111,24.9291667 2.58333333,22.3888889 Z" id="Shape"></path> </g> </g> </svg> 