<?xml version="1.0" encoding="UTF-8"?> <svg xmlns="http://www.w3.org/2000/svg" xmlns:xlink="http://www.w3.org/1999/xlink" width="48px" height="48px" viewBox="0 0 48 48"> <!-- Generator: Sketch 52.6 (67491) - http://www.bohemiancoding.com/sketch --> <title>work seat copy 2</title> <desc>Created with Sketch.</desc> <g id="work-seat-copy-2" stroke="none" stroke-width="1" fill="none" fill-rule="evenodd"> <g id="work_seat"> <rect id="Rectangle" stroke="#C6CFD4" opacity="0.798828125" x="0.5" y="0.5" width="47" height="47" rx="3"></rect> <g id="noun_office-chair_1247460" transform="translate(10.000000, 6.000000)" fill="#C70000" fill-rule="nonzero"> <path d="M7.22170505,6.73425 L6.8650032,17.22825 C6.86082853,17.3502 6.90767754,17.46855 6.99534549,17.5563 C7.08301344,17.64405 7.20315099,17.69355 7.32885477,17.69355 L13.9322457,17.69355 L13.9322457,19.43685 L5.80231926,19.43685 C4.70484645,19.43685 3.81285988,20.29545 3.79523353,21.3561 C2.9440659,21.19815 2.29838452,20.4723 2.29838452,19.60155 L2.29838452,14.56785 L3.20521433,14.56785 C3.4612604,14.56785 3.6690659,14.3667 3.6690659,14.11785 C3.6690659,13.869 3.4612604,13.66785 3.20521433,13.66785 L0.463851567,13.66785 C0.207805502,13.66785 0,13.869 0,14.11785 C0,14.3667 0.207805502,14.56785 0.463851567,14.56785 L1.37068138,14.56785 L1.37068138,19.60155 C1.37068138,20.96865 2.42872681,22.0986 3.79198656,22.26645 L3.79198656,22.29345 C3.79198656,23.36895 4.69371401,24.24375 5.80185541,24.24375 L13.9605406,24.24375 C13.9456974,24.2883 13.9317818,24.3333 13.9317818,24.3828 L13.9317818,27.3357 L7.22263276,29.8269 C6.87984645,29.5002 6.41089251,29.29725 5.89369802,29.29725 C4.84632118,29.29725 3.99422585,30.1239 3.99422585,31.14 C3.99422585,32.1561 4.84632118,32.98275 5.89369802,32.98275 C6.94107486,32.98275 7.79317019,32.1561 7.79317019,31.14 C7.79317019,30.95505 7.75652591,30.78 7.70411068,30.6117 L13.9327095,28.29825 L13.9327095,32.3766 C13.1103007,32.57865 12.4970889,33.2973 12.4970889,34.15725 C12.4970889,35.17335 13.3491843,36 14.3965611,36 C15.4439379,36 16.2960333,35.17335 16.2960333,34.15725 C16.2960333,33.2973 15.6832853,32.5791 14.8604127,32.3766 L14.8604127,28.215 L21.312588,30.61125 C21.2601727,30.77955 21.2235285,30.9546 21.2235285,31.13955 C21.2235285,32.15565 22.0756238,32.9823 23.1230006,32.9823 C24.1703775,32.9823 25.022009,32.15565 25.022009,31.13955 C25.022009,30.12345 24.1703775,29.2968 23.1230006,29.2968 C22.6058061,29.2968 22.1368522,29.49975 21.7940659,29.82645 L14.8604127,27.25155 L14.8604127,24.3819 C14.8604127,24.33285 14.8464971,24.2874 14.8316539,24.24285 L22.9908029,24.24285 C24.0994082,24.24285 25.0006718,23.36805 25.0006718,22.29255 L25.0006718,22.28265 C26.4622681,22.2102 27.6293186,21.0366 27.6293186,19.6011 L27.6293186,14.56785 L28.5361484,14.56785 C28.7921945,14.56785 29,14.3667 29,14.11785 C29,13.869 28.7921945,13.66785 28.5361484,13.66785 L25.7947857,13.66785 C25.5387396,13.66785 25.3309341,13.869 25.3309341,14.11785 C25.3309341,14.3667 25.5387396,14.56785 25.7947857,14.56785 L26.7016155,14.56785 L26.7016155,19.60155 C26.7016155,20.5407 25.9487844,21.3048 24.9992802,21.37635 C24.9932502,20.30625 24.0947697,19.43685 22.9903391,19.43685 L14.8599488,19.43685 L14.8599488,17.69355 L21.4633397,17.69355 C21.5890435,17.69355 21.7091811,17.64405 21.796849,17.5563 C21.884517,17.46855 21.931366,17.35065 21.9271913,17.22825 L21.5704894,6.73425 C21.4420026,2.95785 18.290595,0 14.3960972,0 C10.5015995,0 7.35019194,2.95785 7.22170505,6.73425 Z M5.89369802,32.08275 C5.35794946,32.08275 4.92192898,31.6602 4.92192898,31.14 C4.92192898,30.6198 5.3574856,30.19725 5.89369802,30.19725 C6.42991043,30.19725 6.86546705,30.6198 6.86546705,31.14 C6.86546705,31.6602 6.42944658,32.08275 5.89369802,32.08275 Z M23.1225368,30.1977 C23.6582853,30.1977 24.093842,30.62025 24.093842,31.14045 C24.093842,31.66065 23.6582853,32.0832 23.1225368,32.0832 C22.5867882,32.0832 22.1507678,31.66065 22.1507678,31.14045 C22.1507678,30.62025 22.5863244,30.1977 23.1225368,30.1977 Z M15.3678663,34.15725 C15.3678663,34.677 14.9323097,35.1 14.3960972,35.1 C13.8598848,35.1 13.4243282,34.67745 13.4243282,34.15725 C13.4243282,33.63705 13.8598848,33.2145 14.3960972,33.2145 C14.9323097,33.2145 15.3678663,33.6375 15.3678663,34.15725 Z M24.0725048,21.38715 L24.0725048,22.29345 C24.0725048,22.8726 23.5868522,23.34375 22.9903391,23.34375 L5.80231926,23.34375 C5.20534229,23.34375 4.72015355,22.8726 4.72015355,22.29345 L4.72015355,21.38715 C4.72015355,20.808 5.20580614,20.33685 5.80231926,20.33685 L22.9898752,20.33685 C23.5868522,20.33685 24.0725048,20.80755 24.0725048,21.38715 Z M20.6432502,6.76395 L20.9841811,16.7931 L7.80847729,16.7931 L8.14894434,6.76395 C8.26073257,3.47535 11.0048784,0.9 14.3960972,0.9 C17.7873161,0.9 20.5314619,3.4758 20.6432502,6.76395 Z" id="Shape"></path> </g> </g> </g> </svg> 