<?xml version="1.0" encoding="UTF-8"?> <svg xmlns="http://www.w3.org/2000/svg" xmlns:xlink="http://www.w3.org/1999/xlink" width="48px" height="48px" viewBox="0 0 48 48"> <!-- Generator: Sketch 52.6 (67491) - http://www.bohemiancoding.com/sketch --> <title>internet copy</title> <desc>Created with Sketch.</desc> <g id="internet-copy" stroke="none" stroke-width="1" fill="none" fill-rule="evenodd"> <g id="rent_hub" opacity="0.798828125" stroke="#C6CFD4"> <rect id="Rectangle" x="0.5" y="0.5" width="47" height="47" rx="3"></rect> </g> <g id="noun_internet_1771870" transform="translate(9.000000, 9.000000)" fill="#C70000"> <path d="M27.3038915,17.9668823 L27.3038915,2.82231086 C27.3038915,1.8019462 26.4654046,0.9716797 25.4344218,0.9716797 L4.43422806,0.9716797 C3.40324532,0.9716797 2.56475835,1.8019462 2.56475835,2.82231086 L2.56475835,17.969023 L0.936422157,27.6837234 C0.882304117,28.0183646 0.977866992,28.3591712 1.19810683,28.6181157 C1.42142936,28.8804854 1.74819265,29.0308513 2.09447955,29.0308513 L27.8553474,29.0308513 C28.2033469,29.0308513 28.5311378,28.8791153 28.7548028,28.614348 C28.9753852,28.3530059 29.0688929,28.0104867 29.0116922,27.6727628 L27.3038915,17.9668823 Z M3.26623764,4.05058465 L26.6024122,4.05058465 L26.6024122,17.6475687 L3.26623764,17.6475687 L3.26623764,4.05058465 Z M4.43422806,1.67315899 L25.4344218,1.67315899 C26.0783579,1.67315899 26.6024122,2.18865038 26.6024122,2.82231086 L26.6024122,3.34910536 L3.26623764,3.34910536 L3.26623764,2.82231086 C3.26623764,2.18865034 3.79029199,1.67315899 4.43422806,1.67315899 Z M28.2187603,28.1618801 C28.1286777,28.2684036 27.9964653,28.329372 27.8553474,28.329372 L2.09447952,28.329372 C1.95404666,28.329372 1.82217676,28.2687461 1.73243673,28.1632502 C1.64406678,28.0594669 1.60741723,27.9289671 1.62865343,27.7974397 L3.21235509,18.349048 L26.6586068,18.349048 L28.3204885,27.7923019 C28.3430947,27.9258844 28.3071302,28.0570693 28.2187603,28.1618801 Z" id="Shape" fill-rule="nonzero"></path> <path d="M25.1771899,20.0071834 L4.69145999,20.0071834 C4.51437757,20.0071834 4.36503919,20.1393958 4.34346049,20.3151081 L3.60841433,26.2776821 C3.59608366,26.3773552 3.62725287,26.4777133 3.69370162,26.552725 C3.76015034,26.6280793 3.85605571,26.6712367 3.95641382,26.6712367 L25.9714919,26.6712367 C26.0725351,26.6712367 26.168783,26.6277367 26.2352317,26.5516975 C26.3020229,26.4756582 26.3325071,26.3742725 26.3191489,26.2742569 L25.5248469,20.311683 C25.5015556,20.1373407 25.3529023,20.0071834 25.1771899,20.0071834 Z M25.1737861,22.9884704 L20.4221673,22.9884704 L20.1990375,20.7086627 L24.8699502,20.7086627 L25.1737861,22.9884704 Z M14.6132132,23.6899497 L14.6132132,25.9697574 L9.72212489,25.9697574 L9.94538316,23.6899497 L14.6132132,23.6899497 Z M10.0140797,22.9884704 L10.2373594,20.7086627 L14.6132132,20.7086627 L14.6132132,22.9884704 L10.0140797,22.9884704 Z M15.3146925,23.6899497 L19.7860664,23.6899497 L20.0091962,25.9697574 L15.3146925,25.9697574 L15.3146925,23.6899497 Z M15.3146925,22.9884704 L15.3146925,20.7086627 L19.4942828,20.7086627 L19.7174127,22.9884704 L15.3146925,22.9884704 Z M9.53258333,20.7086627 L9.30932506,22.9884704 L4.72065973,22.9884704 L5.00178236,20.7086627 L9.53258333,20.7086627 Z M4.63417364,23.6899497 L9.24062853,23.6899497 L9.01737025,25.9697574 L4.35305101,25.9697574 L4.63417364,23.6899497 Z M20.7139509,25.9697574 L20.490821,23.6899497 L25.2672511,23.6899497 L25.571087,25.9697574 L20.7139509,25.9697574 Z" id="Shape" fill-rule="nonzero"></path> <path d="M14.9341939,9.39936424 C12.6537012,9.39936424 10.5379602,10.635516 9.41244215,12.6252099 C9.31687931,12.7937294 9.37647763,13.0078038 9.54499708,13.1030242 C9.71351654,13.197902 9.92759101,13.1393312 10.0228113,12.9704693 C11.0243375,11.2003301 12.9061378,10.1008435 14.9341939,10.1008435 C16.9625926,10.1008435 18.844393,11.2006726 19.8455765,12.9708118 C19.9099702,13.0848707 20.0288243,13.1489218 20.1511037,13.1489218 C20.2096745,13.1489218 20.2689303,13.1341934 20.3233908,13.1033667 C20.4919103,13.0081464 20.5515086,12.7940719 20.4559457,12.6255524 C19.3307702,10.635516 17.2150292,9.39936424 14.9341939,9.39936424 Z" id="Path"></path> <path d="M14.9698159,11.8545418 C13.6887942,11.8545418 12.4999101,12.5488282 11.8676197,13.6668108 C11.7720568,13.8353302 11.8316551,14.0494047 12.0001746,14.144625 C12.1683515,14.2395028 12.3827685,14.1805896 12.4779889,14.0120701 C12.9862874,13.1139848 13.9408883,12.556021 14.9698159,12.556021 C15.9990861,12.556021 16.9536871,13.1139848 17.461643,14.0124126 C17.5260366,14.1264715 17.6448908,14.1905226 17.7671701,14.1905226 C17.8257409,14.1905226 17.8849967,14.1757943 17.9394573,14.1449676 C18.1079767,14.0497472 18.1675751,13.8356728 18.0720122,13.6671533 C17.4400643,12.5491707 16.2515227,11.8545418 14.9698159,11.8545418 Z" id="Path"></path> <path d="M15.0040678,6.94418672 C11.8258323,6.94418672 8.87708466,8.66705823 7.30800428,11.4404361 C7.21244144,11.6089555 7.27203975,11.82303 7.44055921,11.9182503 C7.60873613,12.0138132 7.82315313,11.9542148 7.91837348,11.7856954 C9.36311939,9.23221488 12.078269,7.64566601 15.0040678,7.64566601 C17.9302092,7.64566601 20.6450163,9.23221488 22.0897622,11.7863805 C22.1541558,11.9004393 22.27301,11.9644904 22.3952893,11.9644904 C22.4538601,11.9644904 22.5131159,11.9497621 22.5675765,11.9189354 C22.7360959,11.823715 22.7956942,11.6096406 22.7001314,11.4411211 C21.1313936,8.66740076 18.1826459,6.94418672 15.0040678,6.94418672 Z" id="Path"></path> </g> </g> </svg> 