<?xml version="1.0" encoding="UTF-8"?> <svg xmlns="http://www.w3.org/2000/svg" xmlns:xlink="http://www.w3.org/1999/xlink" width="48px" height="48px" viewBox="0 0 48 48"> <!-- Generator: Sketch 52.6 (67491) - http://www.bohemiancoding.com/sketch --> <title>print copy</title> <desc>Created with Sketch.</desc> <g id="print-copy" stroke="none" stroke-width="1" fill="none" fill-rule="evenodd"> <rect id="Rectangle" stroke="#C6CFD4" opacity="0.798828125" x="0.5" y="0.5" width="47" height="47" rx="3"></rect> <g id="noun_Book_1247462" transform="translate(10.000000, 10.000000)" fill="#C70000"> <path d="M28.2495344,2.23895424 C20.4995905,-1.33540814 15.566087,2.0542064 14.4334109,2.97724446 C13.95524,2.57830131 12.7840018,1.72222119 10.9687754,1.15781128 C8.7858062,0.478416003 5.21705287,0.114879932 0.611678358,2.23895424 C0.487578291,2.29609636 0.408,2.42054699 0.408,2.5572674 L0.408,27.4477443 C0.408,27.5672871 0.468998338,27.6784162 0.569610539,27.7429202 C0.669872175,27.8077748 0.796426197,27.8161883 0.905451962,27.7660575 C9.28501098,23.9014272 13.9881932,28.3897129 14.1841591,28.5832249 C14.1953772,28.5940924 14.2097504,28.5986498 14.2216696,28.6077644 C14.2458586,28.6259938 14.2689959,28.6456255 14.2973916,28.6571941 C14.3268391,28.6691134 14.3580394,28.6722684 14.3888891,28.6757741 C14.4029118,28.6775269 14.4151815,28.6841877 14.4299053,28.6841877 C14.4302558,28.6841877 14.4302558,28.6841877 14.4306064,28.6841877 C14.4435773,28.6841877 14.4544448,28.678228 14.4670652,28.6768258 C14.4996677,28.6733201 14.5326209,28.6698145 14.5634706,28.6575447 C14.5946709,28.6449244 14.6202622,28.624241 14.646204,28.6035577 C14.6560198,28.5958452 14.667939,28.5923396 14.6770537,28.5832249 C14.8730196,28.3897129 19.576903,23.9010766 27.9557608,27.7660575 C28.0651372,27.8165389 28.1913406,27.8077748 28.2916023,27.7429202 C28.3922145,27.6784162 28.4532128,27.5672871 28.4532128,27.4477443 L28.4532128,2.5572674 C28.4532128,2.42019643 28.3739851,2.29609636 28.2495344,2.23895424 Z M7.3881029,25.519636 C5.62651297,25.519636 3.51540958,25.8740573 1.10913032,26.907874 L1.10913032,2.7826808 C8.81279971,-0.670035461 13.3564748,2.94814756 14.0852997,3.60125045 C14.1122932,5.12235268 14.0958167,19.3798377 14.0814435,27.5942806 C13.4826782,27.1522179 12.4418503,26.5057757 10.9687754,26.0475871 C10.025054,25.754164 8.82191441,25.519636 7.3881029,25.519636 Z M27.7520825,26.907874 C20.9016887,23.9641783 16.3429394,26.4700181 14.7825738,27.6005907 C14.7955447,20.3032264 14.8162281,5.53637013 14.783275,3.59739423 C15.5170078,2.9607679 20.1430657,-0.62376086 27.7520825,2.78303137 L27.7520825,26.907874 Z" id="Shape" fill-rule="nonzero"></path> <path d="M3.23320463,5.92094011 C8.69430869,3.40177887 11.7564954,6.31357309 11.8841011,6.43802372 C11.9524613,6.5056828 12.0415048,6.53968762 12.130899,6.53968762 C12.2213448,6.53968762 12.31144,6.50498167 12.3798002,6.43592033 C12.5161701,6.29814823 12.5154689,6.07659104 12.3776968,5.9402212 C12.2371202,5.80069626 8.8622294,2.55306062 2.93943102,5.28431378 C2.76379788,5.36529433 2.68667354,5.57353004 2.76800466,5.74951375 C2.84898521,5.92479633 3.05651978,6.00227123 3.23320463,5.92094011 Z" id="Path"></path> <path d="M2.93943102,8.65850345 C2.76379788,8.739484 2.68667354,8.94771971 2.76800466,9.12370342 C2.84898521,9.29933656 3.05651978,9.37681146 3.23320463,9.29512978 C8.69465925,6.77526741 11.7571965,9.68741219 11.8841011,9.81186283 C11.9524613,9.8795219 12.0415048,9.91352672 12.130899,9.91352672 C12.2213448,9.91352672 12.31144,9.87882077 12.3798002,9.80975943 C12.5161701,9.67198733 12.5154689,9.45043015 12.3776968,9.3140603 C12.2367696,9.17453536 8.86117771,5.92689972 2.93943102,8.65850345 Z" id="Path"></path> <path d="M2.93943102,12.0326931 C2.76379788,12.1136737 2.68667354,12.3219094 2.76800466,12.4978931 C2.84898521,12.6735262 3.05651978,12.7506506 3.23320463,12.6693194 C8.69430869,10.1501582 11.7564954,13.0619524 11.8841011,13.1864031 C11.9524613,13.2540621 12.0415048,13.288067 12.130899,13.288067 C12.2213448,13.288067 12.31144,13.253361 12.3798002,13.1842997 C12.5161701,13.0465276 12.5154689,12.8249704 12.3776968,12.6886005 C12.2367696,12.548725 8.86187884,9.30108939 2.93943102,12.0326931 Z" id="Path"></path> <path d="M2.93943102,15.4072333 C2.76379788,15.4882139 2.68667354,15.6964496 2.76800466,15.8724333 C2.84898521,16.0480665 3.05651978,16.1251908 3.23320463,16.0438597 C8.69465925,13.5239973 11.7571965,16.4361421 11.8841011,16.5605927 C11.9524613,16.6282518 12.0415048,16.6622566 12.130899,16.6622566 C12.2213448,16.6622566 12.31144,16.6275507 12.3798002,16.5584893 C12.5161701,16.4207172 12.5154689,16.19916 12.3776968,16.0627902 C12.2367696,15.9232653 8.86117771,12.6752791 2.93943102,15.4072333 Z" id="Path"></path> <path d="M2.93943102,18.781423 C2.76379788,18.8624036 2.68667354,19.0706393 2.76800466,19.246623 C2.84898521,19.4222561 3.05651978,19.499731 3.23320463,19.4180493 C8.69500982,16.8988881 11.7571965,19.8099812 11.8841011,19.9347824 C11.9524613,20.0024415 12.0415048,20.0364463 12.130899,20.0364463 C12.2213448,20.0364463 12.31144,20.0017403 12.3798002,19.932679 C12.5161701,19.7949069 12.5154689,19.5733497 12.3776968,19.4369799 C12.2367696,19.2971044 8.86117771,16.0501698 2.93943102,18.781423 Z" id="Path"></path> <path d="M2.93943102,22.1559632 C2.76379788,22.2369438 2.68667354,22.4451795 2.76800466,22.6211632 C2.84898521,22.7967964 3.05651978,22.8742713 3.23320463,22.7925896 C8.69465925,20.2727272 11.7571965,23.184872 11.8841011,23.3093226 C11.9524613,23.3769817 12.0415048,23.4109865 12.130899,23.4109865 C12.2213448,23.4109865 12.31144,23.3762806 12.3798002,23.3072192 C12.5161701,23.1694471 12.5154689,22.9478899 12.3776968,22.8115201 C12.2367696,22.6716446 8.86117771,19.4243595 2.93943102,22.1559632 Z" id="Path"></path> <path d="M16.7296127,6.43451807 C16.7979729,6.50392997 16.8884187,6.53898649 16.9792151,6.53898649 C17.0679081,6.53898649 17.1566011,6.50533224 17.2249613,6.43837429 C17.352567,6.31357309 20.4147537,3.40212944 25.8765589,5.92058955 C26.0532437,6.0015701 26.2607783,5.92444577 26.3417588,5.74916319 C26.4227394,5.57317947 26.3459656,5.36494377 26.1703325,5.28396322 C20.2482352,2.55271006 16.8729939,5.8003457 16.7320667,5.93987063 C16.5946451,6.07588991 16.5935934,6.29709653 16.7296127,6.43451807 Z" id="Path"></path> <path d="M26.1703325,8.65850345 C20.2478847,5.92795142 16.8729939,9.17453536 16.7320667,9.3140603 C16.5946451,9.45007958 16.5935934,9.6712862 16.7296127,9.80870774 C16.7979729,9.87811964 16.8884187,9.91317616 16.9792151,9.91317616 C17.0679081,9.91317616 17.1566011,9.8795219 17.2249613,9.81256396 C17.352567,9.68741219 20.4133514,6.77526741 25.8765589,9.29512978 C26.0532437,9.37611033 26.2607783,9.298986 26.3417588,9.12370342 C26.4227394,8.94771971 26.3456151,8.73983457 26.1703325,8.65850345 Z" id="Path"></path> <path d="M26.1703325,12.0326931 C20.2482352,9.30143995 16.8729939,12.5490756 16.7320667,12.6886005 C16.5946451,12.8246198 16.5935934,13.0458264 16.7296127,13.183248 C16.7979729,13.2526599 16.8884187,13.2877164 16.9792151,13.2877164 C17.0679081,13.2877164 17.1566011,13.2540621 17.2249613,13.1871042 C17.352567,13.062303 20.4147537,10.1508593 25.8765589,12.6693194 C26.0532437,12.7499494 26.2607783,12.6728251 26.3417588,12.4978931 C26.4227394,12.3219094 26.3456151,12.1140242 26.1703325,12.0326931 Z" id="Path"></path> <path d="M26.1703325,15.4072333 C20.2478847,12.6763307 16.8729939,15.9236158 16.7320667,16.0627902 C16.5946451,16.1988095 16.5935934,16.4200161 16.7296127,16.5574376 C16.7979729,16.6268495 16.8884187,16.6619061 16.9792151,16.6619061 C17.0679081,16.6619061 17.1566011,16.6282518 17.2249613,16.5612939 C17.352567,16.4361421 20.4133514,13.5243479 25.8765589,16.0438597 C26.0532437,16.1244897 26.2607783,16.0480665 26.3417588,15.8724333 C26.4227394,15.6964496 26.3456151,15.4885645 26.1703325,15.4072333 Z" id="Path"></path> <path d="M26.1703325,18.781423 C20.2485858,16.050871 16.8729939,19.2974549 16.7320667,19.4369799 C16.5946451,19.5729991 16.5935934,19.7942058 16.7296127,19.9316273 C16.7979729,20.0010392 16.8884187,20.0360957 16.9792151,20.0360957 C17.0679081,20.0360957 17.1566011,20.0024415 17.2249613,19.9354835 C17.352567,19.8106823 20.4147537,16.8992387 25.8765589,19.4180493 C26.0532437,19.4990299 26.2607783,19.421555 26.3417588,19.246623 C26.4227394,19.0706393 26.3456151,18.8627541 26.1703325,18.781423 Z" id="Path"></path> <path d="M26.1703325,22.1559632 C20.2478847,19.4254112 16.8729939,22.6719952 16.7320667,22.8115201 C16.5946451,22.9475394 16.5935934,23.168746 16.7296127,23.3061675 C16.7979729,23.3755794 16.8884187,23.410636 16.9792151,23.410636 C17.0679081,23.410636 17.1566011,23.3769817 17.2249613,23.3100237 C17.352567,23.184872 20.4133514,20.2727272 25.8765589,22.7925896 C26.0532437,22.8735701 26.2607783,22.7967964 26.3417588,22.6211632 C26.4227394,22.4451795 26.3456151,22.2372944 26.1703325,22.1559632 Z" id="Path"></path> </g> </g> </svg> 