<?xml version="1.0" encoding="UTF-8"?> <svg xmlns="http://www.w3.org/2000/svg" xmlns:xlink="http://www.w3.org/1999/xlink" width="48px" height="48px" viewBox="0 0 48 48"> <!-- Generator: Sketch 52.6 (67491) - http://www.bohemiancoding.com/sketch --> <title>reserve copy</title> <desc>Created with Sketch.</desc> <g id="reserve-copy" stroke="none" stroke-width="1" fill="none" fill-rule="evenodd"> <g id="event" opacity="0.798828125" stroke="#C6CFD4"> <rect id="Rectangle" x="0.5" y="0.5" width="47" height="47" rx="3"></rect> </g> <g id="noun_clock_763072" transform="translate(9.000000, 9.000000)" fill="#C70000"> <path d="M15.5007886,30.4015771 C23.7573534,30.4015771 30.5015771,23.6573534 30.5015771,15.4007886 C30.5015771,7.14422375 23.7573534,0.4 15.5007886,0.4 C7.24422375,0.4 0.5,7.14422375 0.5,15.4007886 C0.5,23.6982275 7.24422375,30.4015771 15.5007886,30.4015771 Z M15.5007886,1.21748167 C23.3077385,1.21748167 29.6840955,7.59383866 29.6840955,15.4007886 C29.6840955,23.2077385 23.3486126,29.5840955 15.5007886,29.5840955 C7.69383866,29.5840955 1.31748167,23.2077385 1.31748167,15.4007886 C1.31748167,7.59383866 7.69383866,1.21748167 15.5007886,1.21748167 Z" id="Shape" fill-rule="nonzero"></path> <path d="M15.5007886,16.2591443 C15.8686553,16.2591443 16.1547739,16.0547739 16.3182702,15.7686553 L24.6157091,15.7686553 C24.8609536,15.7686553 25.02445,15.605159 25.02445,15.3599145 C25.02445,15.11467 24.8609536,14.9511737 24.6157091,14.9511737 L16.3182702,14.9511737 C16.2365221,14.7876773 16.1138998,14.624181 15.9095294,14.5424328 L15.9095294,7.14422375 C15.9095294,6.89897925 15.7460331,6.73548291 15.5007886,6.73548291 C15.2555441,6.73548291 15.0920477,6.89897925 15.0920477,7.14422375 L15.0920477,14.5424328 C14.8059292,14.7059292 14.6015587,14.9920477 14.6015587,15.3599145 C14.6015587,15.8504035 15.0102996,16.2591443 15.5007886,16.2591443 Z" id="Path"></path> <path d="M15.5007886,4.61003058 C15.7460331,4.61003058 15.9095294,4.44653425 15.9095294,4.20128975 L15.9095294,3.01594133 C15.9095294,2.77069683 15.7460331,2.6072005 15.5007886,2.6072005 C15.2555441,2.6072005 15.0920477,2.77069683 15.0920477,3.01594133 L15.0920477,4.20128975 C15.0920477,4.44653425 15.2964182,4.61003058 15.5007886,4.61003058 Z" id="Path"></path> <path d="M26.0871761,15.4416627 C26.0871761,15.6460331 26.2915466,15.8504035 26.495917,15.8504035 C26.495917,15.8504035 26.495917,15.8504035 26.495917,15.8504035 L27.6812654,15.8504035 C27.9265099,15.8504035 28.0900062,15.6460331 28.0900062,15.4416627 C28.0900062,15.2372922 27.8856358,15.0329218 27.6812654,15.0329218 C27.6812654,15.0329218 27.6812654,15.0329218 27.6812654,15.0329218 L26.495917,15.0329218 C26.2506725,15.0329218 26.0871761,15.1964182 26.0871761,15.4416627 Z" id="Path"></path> <path d="M15.3781663,26.1097984 C15.1329218,26.1097984 14.9694255,26.3141688 14.9694255,26.5185392 L15.0102996,27.7038876 C15.0102996,27.9082581 15.21467,28.1126285 15.4190404,28.1126285 C15.4190404,28.1126285 15.4190404,28.1126285 15.4190404,28.1126285 C15.6642849,28.1126285 15.8277812,27.9082581 15.8277812,27.7038876 L15.8277812,26.5185392 C15.8277812,26.2732947 15.6234108,26.1097984 15.3781663,26.1097984 Z" id="Path"></path> <path d="M4.58740833,15.5642849 C4.58740833,15.3190404 4.423912,15.1555441 4.1786675,15.1555441 L2.99331908,15.1964182 C2.74807458,15.1964182 2.58457825,15.4007886 2.58457825,15.605159 C2.58457825,15.8095294 2.78894866,16.0138998 2.99331908,16.0138998 C2.99331908,16.0138998 2.99331908,16.0138998 2.99331908,16.0138998 L4.1786675,15.9730257 C4.423912,15.9730257 4.58740833,15.7686553 4.58740833,15.5642849 Z" id="Path"></path> <path d="M20.6509231,6.0406235 C20.7326712,6.08149758 20.7735453,6.08149758 20.8552935,6.08149758 C21.0187898,6.08149758 21.1414121,5.99974941 21.2231602,5.87712716 L21.7953974,4.814401 C21.9180197,4.61003058 21.8362715,4.36478608 21.6319011,4.24216383 C21.4275307,4.11954158 21.1822862,4.20128975 21.0596639,4.40566016 L20.4874267,5.46838633 C20.4056786,5.71363083 20.4874267,5.95887533 20.6509231,6.0406235 Z" id="Path"></path> <path d="M26.2915466,21.0414121 L25.2288204,20.4691749 C25.02445,20.3465527 24.7792055,20.4283008 24.6565832,20.6326712 C24.533961,20.8370417 24.6157091,21.0822862 24.8200796,21.2049084 L25.8828057,21.7771456 C25.9645539,21.8180197 26.005428,21.8180197 26.0871761,21.8180197 C26.2506725,21.8180197 26.3732947,21.7362715 26.4550429,21.6136492 C26.5776651,21.3684047 26.495917,21.1231602 26.2915466,21.0414121 Z" id="Path"></path> <path d="M9.61492058,24.9653241 L9.04268341,26.0280502 C8.92006116,26.2324206 9.00180933,26.4776651 9.20617974,26.6002874 C9.24705383,26.6411615 9.32880199,26.6411615 9.41055016,26.6411615 C9.57404649,26.6411615 9.69666874,26.5594133 9.77841691,26.4367911 L10.3506541,25.3740649 C10.4732763,25.1696945 10.3915282,24.92445 10.1871577,24.8018277 C9.94191324,24.6792055 9.69666874,24.7609536 9.61492058,24.9653241 Z" id="Path"></path> <path d="M4.21954158,9.96453549 L5.28226775,10.4958986 C5.32314183,10.5367727 5.40489,10.5367727 5.48663816,10.5367727 C5.6501345,10.5367727 5.77275675,10.4550245 5.85450491,10.3324022 C5.97712716,10.1280318 5.895379,9.88278733 5.69100858,9.80103916 L4.58740833,9.22880199 C4.38303791,9.14705383 4.13779341,9.18792791 4.05604525,9.39229833 C3.933423,9.59666874 4.01517116,9.84191324 4.21954158,9.96453549 Z" id="Path"></path> <path d="M24.9835759,10.3324022 C25.0653241,10.3324022 25.1470722,10.3324022 25.1879463,10.2915282 L26.2097984,9.67841691 C26.4141688,9.55579466 26.4550429,9.31055016 26.3324206,9.10617974 C26.2097984,8.90180933 25.9645539,8.86093524 25.7601835,8.98355749 L24.7383314,9.59666874 C24.533961,9.71929099 24.4930869,9.96453549 24.6157091,10.1689059 C24.6974573,10.2506541 24.8200796,10.3324022 24.9835759,10.3324022 Z" id="Path"></path> <path d="M21.3866566,24.8835759 C21.2640343,24.6792055 21.0187898,24.6383314 20.8144194,24.7609536 C20.610049,24.8835759 20.5691749,25.1288204 20.6917972,25.3331908 L21.3049084,26.3550429 C21.3866566,26.4776651 21.5092788,26.5594133 21.6727752,26.5594133 C21.7545233,26.5594133 21.8362715,26.5594133 21.8771456,26.5185392 C22.081516,26.395917 22.1223901,26.1506725 21.9997678,25.9463021 L21.3866566,24.8835759 Z" id="Path"></path> <path d="M6.18149758,21.1231602 C6.05887533,20.9187898 5.81363083,20.8779157 5.60926041,21.000538 L4.58740833,21.6545233 C4.38303791,21.7771456 4.34216383,22.0223901 4.46478608,22.2267605 C4.54653425,22.3493827 4.6691565,22.4311309 4.79177875,22.4311309 C4.87352691,22.4311309 4.95527508,22.4311309 4.99614916,22.3493827 L6.01800125,21.6953974 C6.22237166,21.5727752 6.30411983,21.3275307 6.18149758,21.1231602 Z" id="Path"></path> <path d="M9.04268341,6.32674208 C9.12443158,6.44936433 9.24705383,6.5311125 9.36967608,6.5311125 C9.45142424,6.5311125 9.53317241,6.49023841 9.57404649,6.44936433 C9.77841691,6.32674208 9.81929099,6.08149758 9.69666874,5.87712716 L9.04268341,4.85527508 C8.92006116,4.65090466 8.67481666,4.61003058 8.47044624,4.73265283 C8.26607583,4.85527508 8.22520174,5.10051958 8.34782399,5.30489 L9.04268341,6.32674208 Z" id="Path"></path> </g> </g> </svg> 