<?xml version="1.0" encoding="UTF-8"?> <svg xmlns="http://www.w3.org/2000/svg" xmlns:xlink="http://www.w3.org/1999/xlink" width="48px" height="48px" viewBox="0 0 48 48"> <!-- Generator: Sketch 52.6 (67491) - http://www.bohemiancoding.com/sketch --> <title>discount copy</title> <desc>Created with Sketch.</desc> <g id="discount-copy" stroke="none" stroke-width="1" fill="none" fill-rule="evenodd"> <rect id="Rectangle" stroke="#C6CFD4" opacity="0.798828125" x="0.5" y="0.5" width="47" height="47" rx="3"></rect> <g id="noun_Wallet_898892" transform="translate(10.000000, 11.000000)" fill="#C70000" fill-rule="nonzero"> <path d="M24.4132231,4.87761172 L23.6804408,4.87761172 L23.3333333,4.8016319 L23.2561983,1.23058065 C23.2561983,1.11661093 23.2176309,1.04063111 23.1404959,0.964651299 C23.0633609,0.888671485 22.9862259,0.850681578 22.8705234,0.850681578 L8.44628099,1.34455037 L2.69972452,0.0149036246 C2.58402204,-0.0230862824 2.46831956,0.0149036246 2.39118457,0.0908834385 C2.31404959,0.166863253 2.2369146,0.242843066 2.2369146,0.356812787 L1.73553719,4.91560163 C0.732782369,5.06756125 0,5.94132911 0,6.9670566 L0,23.9105551 C0,25.0502523 0.925619835,26 2.12121212,26 L24.4517906,26 C25.6088154,26 26.5730028,25.0882422 26.5730028,23.9105551 L26.5730028,18.629958 L26.8044077,18.629958 C27.4600551,18.629958 28,18.0980993 28,17.4522709 L28,13.4253408 C28,12.7795124 27.4600551,12.2476537 26.8044077,12.2476537 L26.5730028,12.2476537 L26.5730028,6.9670566 C26.4958678,5.82735939 25.5702479,4.87761172 24.4132231,4.87761172 Z M22.523416,1.64846962 L22.600551,4.61168237 L11.338843,2.02836869 L22.523416,1.64846962 Z M2.96969697,0.926661392 L8.29201102,2.14233842 C8.29201102,2.14233842 8.29201102,2.14233842 8.29201102,2.14233842 L20.2865014,4.91560163 L2.50688705,4.91560163 L2.96969697,0.926661392 Z M25.7245179,23.9105551 C25.7245179,24.6323633 25.1460055,25.2402019 24.3746556,25.2402019 L2.08264463,25.2402019 C1.34986226,25.2402019 0.732782369,24.6703533 0.732782369,23.9105551 L0.732782369,6.9670566 C0.732782369,6.24524837 1.31129477,5.63740986 2.08264463,5.63740986 L24.4132231,5.63740986 C25.1460055,5.63740986 25.7630854,6.20725846 25.7630854,6.9670566 L25.7630854,12.2476537 L17.5096419,12.2476537 C16.8539945,12.2476537 16.3140496,12.7795124 16.3140496,13.4253408 L16.3140496,17.4522709 C16.3140496,18.0980993 16.8539945,18.629958 17.5096419,18.629958 L25.7245179,18.629958 L25.7245179,23.9105551 Z M27.1900826,13.4253408 L27.1900826,17.4522709 C27.1900826,17.6802104 26.9972452,17.8701599 26.7658402,17.8701599 L17.5096419,17.8701599 C17.2782369,17.8701599 17.0853994,17.6802104 17.0853994,17.4522709 L17.0853994,13.4253408 C17.0853994,13.1974013 17.2782369,13.0074518 17.5096419,13.0074518 L26.7658402,13.0074518 C26.9972452,13.0074518 27.1900826,13.1974013 27.1900826,13.4253408 Z" id="Shape"></path> <path d="M19.5,14 C18.6891892,14 18,14.6486486 18,15.5 C18,16.3513514 18.6486486,17 19.5,17 C20.3513514,17 21,16.3513514 21,15.5 C21,14.6486486 20.3108108,14 19.5,14 Z M19.5,16.1891892 C19.1351351,16.1891892 18.8108108,15.9054054 18.8108108,15.5 C18.8108108,15.0945946 19.0945946,14.8108108 19.5,14.8108108 C19.9054054,14.8108108 20.1891892,15.0945946 20.1891892,15.5 C20.1891892,15.9054054 19.8648649,16.1891892 19.5,16.1891892 Z" id="Shape"></path> </g> </g> </svg> 