<?xml version="1.0" encoding="UTF-8"?> <svg xmlns="http://www.w3.org/2000/svg" xmlns:xlink="http://www.w3.org/1999/xlink" width="48px" height="48px" viewBox="0 0 48 48"> <!-- Generator: Sketch 52.6 (67491) - http://www.bohemiancoding.com/sketch --> <title>guest copy</title> <desc>Created with Sketch.</desc> <g id="guest-copy" stroke="none" stroke-width="1" fill="none" fill-rule="evenodd"> <g id="event" opacity="0.798828125" stroke="#C6CFD4"> <rect id="Rectangle" x="0.5" y="0.5" width="47" height="47" rx="3"></rect> </g> <g id="noun_Vote_811112" transform="translate(9.000000, 9.000000)" fill="#C70000"> <path d="M17.248549,22.1069191 L13.8055009,25.5919557 L12.7138027,24.5002575 C12.5458491,24.3323039 12.2939187,24.3323039 12.1259652,24.5002575 C11.9580116,24.6682111 11.9580116,24.9201414 12.1259652,25.088095 L13.5115821,26.4737119 C13.5955589,26.5576887 13.6795357,26.5996771 13.8055009,26.5996771 C13.931466,26.5996771 14.0154428,26.5576887 14.0994196,26.4737119 L17.8363865,22.736745 C18.00434,22.5687915 18.00434,22.3168611 17.8363865,22.1489075 C17.6684329,21.980954 17.4165026,21.9389656 17.248549,22.1069191 Z" id="Path"></path> <path d="M5.66843291,26.8305825 C5.66843291,26.8305825 5.66843291,26.8305825 5.66843291,26.8305825 C6.21428201,27.2924548 6.8021195,27.7123387 7.38995698,28.0482458 C7.38995698,28.0482458 7.38995698,28.0482458 7.38995698,28.0482458 C7.55791055,28.174211 7.76785251,28.2581878 7.93580608,28.384153 C8.01978286,28.4261414 8.06177126,28.4681297 8.14574804,28.4681297 C8.27171322,28.5521065 8.39767839,28.5940949 8.52364357,28.6780717 C8.60762035,28.7200601 8.73358553,28.7620485 8.81756231,28.8460253 C8.90153909,28.8880137 8.98551588,28.9300021 9.06949266,28.9719904 C9.19545784,29.0139788 9.32142301,29.0979556 9.48937658,29.139944 C9.53136497,29.139944 9.57335337,29.1819324 9.61534176,29.1819324 C10.5390864,29.5598279 11.5048194,29.8117583 12.5125408,30.0217002 C12.5545292,30.0217002 12.638506,30.0217002 12.6804944,30.0636886 C12.8484479,30.105677 12.9744131,30.105677 13.1423667,30.1476654 C13.2263435,30.1476654 13.3103202,30.1896538 13.394297,30.1896538 C13.5202622,30.1896538 13.6462274,30.2316422 13.7721926,30.2316422 C13.8981577,30.2316422 14.0241229,30.2316422 14.1500881,30.2736306 C14.2340649,30.2736306 14.36003,30.2736306 14.4440068,30.2736306 C14.6959372,30.2736306 14.9058791,30.2736306 15.1578095,30.2736306 C15.4097398,30.2736306 15.6196818,30.2736306 15.8716122,30.2736306 C15.9555889,30.2736306 16.0815541,30.2736306 16.1655309,30.2736306 C16.2914961,30.2736306 16.4174613,30.2736306 16.5434264,30.2316422 C16.6693916,30.2316422 16.7953568,30.1896538 16.921322,30.1896538 C17.0052987,30.1896538 17.0892755,30.1476654 17.1732523,30.1476654 C17.3412059,30.1476654 17.4671711,30.105677 17.6351246,30.0636886 C17.677113,30.0636886 17.7610898,30.0636886 17.8030782,30.0217002 C18.8107996,29.8537467 19.7765326,29.5598279 20.7002772,29.1819324 C20.7422656,29.1819324 20.784254,29.139944 20.8262424,29.139944 C20.9522076,29.0979556 21.0781728,29.0139788 21.2461263,28.9719904 C21.3301031,28.9300021 21.4140799,28.8880137 21.4980567,28.8460253 C21.5820335,28.8040369 21.7079986,28.7620485 21.7919754,28.6780717 C21.9179406,28.6360833 22.0439058,28.5521065 22.169871,28.4681297 C22.2538477,28.4261414 22.2958361,28.384153 22.3798129,28.384153 C22.5477665,28.3001762 22.7577084,28.174211 22.925662,28.0482458 C22.925662,28.0482458 22.925662,28.0482458 22.925662,28.0482458 C23.5134995,27.6703503 24.101337,27.2924548 24.6471861,26.8305825 C24.6471861,26.8305825 24.6471861,26.7885941 24.6891745,26.7885941 C28.0482458,24.0173602 30.2316422,19.818521 30.2316422,15.1158211 C30.2316422,6.7601311 23.4715111,0 15.1158211,0 C6.7601311,0 0,6.7601311 0,15.1158211 C0.125965176,19.8605094 2.26737317,24.0593486 5.66843291,26.8305825 Z M22.0439058,27.6703503 C22.0019174,27.7123387 21.959929,27.7123387 21.9179406,27.7543271 C21.7919754,27.8383039 21.6660102,27.8802923 21.4980567,27.964269 C21.4140799,28.0062574 21.2881147,28.0482458 21.2041379,28.1322226 C21.1201612,28.174211 21.0361844,28.2161994 20.9522076,28.2581878 C20.8262424,28.3001762 20.7002772,28.384153 20.5743121,28.4261414 C20.5323237,28.4261414 20.4903353,28.4681297 20.4483469,28.4681297 C20.2803933,28.5101181 20.1544281,28.5940949 19.9864746,28.6360833 C19.9864746,28.6360833 19.9444862,28.6360833 19.9444862,28.6360833 C19.2306835,28.8880137 18.5168809,29.0559672 17.7610898,29.1819324 C17.7191014,29.1819324 17.677113,29.1819324 17.6351246,29.2239208 C17.5091594,29.2659092 17.3412059,29.2659092 17.2152407,29.3078976 C17.1312639,29.3078976 17.0472871,29.349886 16.9633103,29.349886 C16.8373452,29.349886 16.71138,29.3918744 16.5854148,29.3918744 C16.4594496,29.3918744 16.3334845,29.3918744 16.2075193,29.4338628 C16.1235425,29.4338628 16.0395657,29.4338628 15.9136006,29.4338628 C15.7036586,29.4338628 15.4937166,29.4338628 15.2417863,29.4338628 C15.2417863,29.4338628 15.2417863,29.4338628 15.2417863,29.4338628 C15.0318443,29.4338628 14.779914,29.4338628 14.569972,29.4338628 C14.4859952,29.4338628 14.4020184,29.4338628 14.2760533,29.4338628 C14.1500881,29.4338628 14.0241229,29.4338628 13.8981577,29.3918744 C13.7721926,29.3918744 13.6462274,29.349886 13.5622506,29.349886 C13.4782738,29.349886 13.394297,29.3078976 13.3103202,29.3078976 C13.1843551,29.3078976 13.0164015,29.2659092 12.8904363,29.2659092 C12.8484479,29.2659092 12.8064595,29.2659092 12.7644712,29.2239208 C12.0086801,29.0979556 11.2948774,28.8880137 10.5810748,28.6780717 C10.5810748,28.6780717 10.5390864,28.6780717 10.5390864,28.6360833 C10.3711328,28.5940949 10.2451676,28.5101181 10.0772141,28.4681297 C10.0352257,28.4681297 9.95124889,28.4261414 9.9092605,28.384153 C9.78329533,28.3421646 9.65733015,28.2581878 9.53136497,28.2161994 C9.44738819,28.174211 9.36341141,28.1322226 9.27943462,28.0902342 C9.19545784,28.0482458 9.06949266,28.0062574 8.98551588,27.964269 C8.8595507,27.8802923 8.69159713,27.8383039 8.56563196,27.7543271 C8.52364357,27.7543271 8.48165517,27.7123387 8.43966678,27.7123387 C7.72586412,27.3344432 7.01206146,26.8725709 6.38223558,26.3687101 C6.46621236,21.5400451 10.4131212,17.6351246 15.2417863,17.6351246 C20.0704514,17.6351246 24.0173602,21.5400451 24.101337,26.3687101 C23.4715111,26.8305825 22.7996968,27.2924548 22.0439058,27.6703503 Z M15.2417863,0.881756231 C23.0936156,0.881756231 29.5178395,7.3059802 29.5178395,15.1578095 C29.5178395,19.3146603 27.7543271,23.0516272 24.8991164,25.6549075 C24.5632093,21.4980567 21.5820335,18.0969969 17.677113,17.0892755 C19.7765326,16.1655309 21.2881147,14.0241229 21.2881147,11.5468078 C21.2881147,8.18773643 18.5588692,5.50047935 15.2417863,5.50047935 C11.9247033,5.50047935 9.19545784,8.18773643 9.19545784,11.5048194 C9.19545784,13.9821345 10.6650516,16.0815541 12.8064595,17.0472871 C8.90153909,18.0550085 5.92036327,21.4980567 5.58445613,25.6129191 C2.77123387,23.0096388 0.965733015,19.2726719 0.965733015,15.1158211 C0.965733015,7.26399181 7.34796859,0.881756231 15.2417863,0.881756231 Z M15.2417863,16.7533684 C12.3445872,16.7533684 10.0352257,14.4020184 10.0352257,11.5048194 C10.0352257,8.60762035 12.3865756,6.29825879 15.2417863,6.29825879 C18.1389853,6.29825879 20.4483469,8.64960874 20.4483469,11.5048194 C20.4483469,14.4020184 18.0969969,16.7533684 15.2417863,16.7533684 Z" id="Shape" fill-rule="nonzero"></path> </g> </g> </svg> 