<?xml version="1.0" encoding="UTF-8"?> <svg xmlns="http://www.w3.org/2000/svg" xmlns:xlink="http://www.w3.org/1999/xlink" viewBox="0 0 487.13 347.59"> <defs> <style>.cls-1{fill:#fff;}.cls-1,.cls-2,.cls-3{fill-rule:evenodd;}.cls-2{fill:url(#linear-gradient);}.cls-3{fill:url(#linear-gradient-2);}</style> <linearGradient id="linear-gradient" x1="50.7" y1="104.61" x2="151.8" y2="148.7" gradientUnits="userSpaceOnUse"> <stop offset="0" stop-color="#fff"></stop> <stop offset="1" stop-color="#b5b8ba"></stop> </linearGradient> <linearGradient id="linear-gradient-2" x1="344.47" y1="132.81" x2="344.47" y2="169.96" gradientUnits="userSpaceOnUse"> <stop offset="0" stop-color="#b5b8ba"></stop> <stop offset="1" stop-color="#fff"></stop> </linearGradient> </defs> <g id="Layer_2" data-name="Layer 2"> <g id="_1" data-name="1"> <path class="cls-1" d="M323.81,308.61h91.4c43.37,0,71.92-17.57,71.92-52.7,0-26.35-13.73-39.25-36-47.76,13.73-7.69,25.25-19.77,25.25-41.45,0-13.73-4.39-24.43-13.17-33.21-11-11-28.27-17-50.23-17h-89l-.25,192.14ZM365,194.15V153.52H406.7c17.85,0,27.73,7.14,27.73,19.77,0,14.82-11.81,20.86-30.47,20.86Zm0,77.4V229.28h48.86c21.69,0,31.29,8,31.29,20.86,0,14.83-11.25,21.41-29.92,21.41Z"></path> <path class="cls-1" d="M203.4,347.59c51.6,0,84.26-28.55,84.26-86.74v-64c-.29-27.1,8.63-44.19,38.74-43.29l.09-37.05c-39.93-.66-82.5,13.93-81.1,70.82v75.2c0,30.47-15.64,46.12-41.45,46.12s-41.44-16.2-41.44-47.49V212.88H120.39l-.17,49.34C120.22,318.76,151.79,347.59,203.4,347.59Z"></path> <polygon class="cls-1" points="0 232.03 42.27 232.03 42.27 135.88 120.22 135.88 162.5 136.06 162.5 0.91 120.22 0.91 121.1 133.43 42.27 116.39 42.27 0.91 0 0.91 0 232.03"></polygon> <path class="cls-2" d="M120.58,167c.3-27.1-16.81-32-39.33-31.12h-39l-1.08-39H82.41c28.62,0,81.15,3.72,79.75,60.6Z"></path> <polygon class="cls-1" points="120.22 252.01 162.5 252.01 162.5 97.87 120.88 97.87 120.22 252.01"></polygon> <path class="cls-1" d="M204,85.27h18.63V.61H204V85.27Zm59.51,0h18.62V17.78H307.9V.61H237.76V17.78h25.76V85.27Zm58.66,0h64.46V68.7h-46V50.92h39.91V34.35H340.68V17.17H386V.61H322.18V85.27Zm73.77,0h19l7.74-19h35.8l7.74,19h19.47L449.41,0H432.23L396,85.27Zm33.38-35.44,11.25-27.45,11.25,27.45Z"></path> <polygon class="cls-3" points="364.98 153.52 364.98 194.15 323.96 194.2 324.01 153.49 364.98 153.52"></polygon> </g> </g> </svg> 